<?xml version="1.0" encoding="utf-8"?>
<!-- Generator: Adobe Illustrator 26.0.1, SVG Export Plug-In . SVG Version: 6.00 Build 0)  -->
<svg version="1.1" id="Слой_1" xmlns="http://www.w3.org/2000/svg" xmlns:xlink="http://www.w3.org/1999/xlink" x="0px" y="0px"
	 viewBox="0 0 1000 1000" style="enable-background:new 0 0 1000 1000;" xml:space="preserve">
<style type="text/css">
	.st0{fill:#DA1409;}
</style>
<g>
	<polygon points="581.03,494.59 581.04,494.58 581.03,494.56 	"/>
	<path d="M789.01,541.18l-0.07-0.1c0,0.05,0.01,0.09,0.01,0.14L789.01,541.18z"/>
	<path class="st0" d="M458.37,677.33v-59.68h-36.54v45.64c-16.03-8.24-30.62-18.76-43.42-31.06c-0.57,0.46-1.13,0.86-1.59,0.77
		c-1.14-0.23-2.11-1.35-3.15-2.1c0.68-0.33,1.38-0.67,2.25-1.09c-6.49-6.47-12.49-13.42-17.96-20.76c-0.1,0.76-0.97,1.48-1.51,2.22
		c-0.68-0.62-1.36-1.23-2.33-2.11c0.82-0.79,1.48-1.86,1.94-1.78c0.29,0.05,0.64,0.21,0.96,0.43
		c-14.21-19.4-24.68-41.54-30.54-65.19c-0.18,0.25-0.46,0.47-0.73,0.59c-0.15,0.06-0.54-0.46-1.02-0.9
		c0.58-0.43,0.94-0.71,1.31-0.99c0.05,0.07,0.11,0.14,0.17,0.21c-1.94-8.03-3.36-16.23-4.2-24.56v0h99.82v16.25h36.54v-16.25v-36.54
		v-16.25h-7.91c0.25,0.2,0.49,0.42,0.74,0.61c-0.28,0.34-0.64,1-0.82,0.95c-0.69-0.18-1.32-0.59-2.24-1.06
		c0.19-0.17,0.37-0.34,0.53-0.51h-26.83v16.25h-11.28c1.17,0.19,1.52,1.04,1.19,2.23c-0.13,0.48-0.37,0.92-0.84,2.03
		c-0.95-1.93-1.39-2.82-1.83-3.72c0.35-0.17,0.7-0.46,1.04-0.54h-37.56c-0.17,0.25-0.53,0.65-0.88,1.14
		c-0.41-0.42-0.78-0.79-1.12-1.14h-27.49c-0.23,0.09-0.48,0.24-0.64,0.17c-0.11-0.05-0.22-0.1-0.33-0.17h-20.12
		c0.05-0.48,0.11-0.95,0.17-1.43c-0.37,0.47-0.75,0.93-1.12,1.4c-0.4-0.78-0.76-1.59-1.23-2.32c-0.29-0.44-0.77-0.75-1.16-1.12
		c0.19-0.34,0.31-0.86,0.52-0.89c1.12-0.21,2.25-0.37,3.39-0.42c7.67-61.18,45.46-114.09,99.29-141.58v45.7h36.54v-59.69v-37.57
		c-12.65,2.75-24.86,6.59-36.54,11.38v28.73l-22.96-17.72c-28.49,15.76-52.95,37.57-71.85,63.54c0.33,0.3,0.64,0.63,0.98,0.92
		c-0.42,0.47-0.9,1.37-1.24,1.32c-0.35-0.05-0.68-0.22-1.05-0.44c-14.58,20.45-25.72,43.44-32.71,68.03
		c0.18,0.26,0.35,0.5,0.55,0.79c-0.39,0.3-0.75,0.71-1.02,0.83c-3.09,11.19-5.33,22.7-6.63,34.46l-22.31,24.37l22.27,24.32
		c3.31,30.51,12.86,59.66,28.18,86.14c0.34-0.3,1.32-0.25,1.87-0.01c2.68,1.17,2.77,1.41,2.56,4.97c0.37,1.04,0.91,2.2-0.19,2.06
		c3.42,5.44,7.07,10.78,11,15.96c18.73,24.75,42.68,45.35,69.69,60.31l22.87-17.65v7.97c0.02,0.05,0.06,0.1,0.07,0.15
		c0.02,0.1-0.01,0.2-0.07,0.32v11.16c0.94,0.02,1.91,0.18,2.77,0.53c0.49,0.2,1.02,1.11,0.97,1.64c-0.05,0.49-0.81,0.96-1.35,1.3
		c-0.25,0.15-0.7-0.03-1.46-0.1c-0.23-0.05-0.56-0.08-0.93-0.14v5.84c6.76,2.8,13.65,5.25,20.67,7.34
		c5.21,1.56,10.53,2.94,15.87,4.09V677.33z M453.27,469.29c1.06,0.48,2.11,0.97,3.13,1.52c0.03,0.02-0.27,0.85-0.32,0.84
		c-0.8-0.16-1.64-0.3-2.37-0.66c-0.39-0.2-0.58-0.81-0.84-1.22C453.06,469.53,453.23,469.27,453.27,469.29z M442.74,479.75
		c1.06,0.55,2.13,1.1,3.39,1.74c-1.55,1.67-2.02,2.18-2.49,2.69c-0.61-0.78-1.47-1.48-1.75-2.37
		C441.71,481.27,442.43,480.45,442.74,479.75z M412.93,510.87c0.66,0.24,1.23,0.76,1.83,1.16c-0.38,0.51-0.76,1.02-1.53,2.04
		c-0.7-1.23-1.08-1.9-1.46-2.58C412.17,511.27,412.66,510.77,412.93,510.87z M405.5,509.49c0.28-0.73,1.52-1.07,2.69-1.81
		c0.61,0.82,1.41,1.42,1.4,2.01c-0.01,0.76-0.48,1.9-1.08,2.18C407.57,512.33,405.15,510.39,405.5,509.49z M401.73,507.28
		c0.51,1.45,1.02,2.17,0.84,2.56c-0.31,0.66-1.01,1.19-1.66,1.59c-0.13,0.08-1.12-0.72-1.06-0.94
		C400.03,509.83,400.53,509.26,401.73,507.28z M376.67,490.59c0.12,0.01,0.35,0.38,0.31,0.43c-0.15,0.21-0.38,0.35-0.69,0.61
		c-0.16-0.37-0.27-0.61-0.38-0.84C376.17,490.71,376.42,490.57,376.67,490.59z M375.27,493.96c0.38,0.14,0.72,0.4,1.07,0.61
		c-0.18,0.29-0.35,0.57-0.53,0.86c-0.33-0.23-0.66-0.47-1.11-0.78C374.96,494.32,375.19,493.93,375.27,493.96z M428.65,349.34
		c-0.17-0.12-0.34-0.23-0.52-0.36c0.11-0.16,0.21-0.31,0.31-0.46c0.16,0.12,0.38,0.21,0.46,0.37
		C428.94,348.98,428.74,349.19,428.65,349.34z M456.98,288.57c0.4-0.06,0.88,0.35,1.32,0.56c-0.31,0.4-0.55,1.02-0.94,1.13
		c-0.4,0.11-0.94-0.28-1.71-0.57C456.24,289.17,456.58,288.64,456.98,288.57z M449.53,369.16c0.59,0.14,1.09,0.65,1.62,1
		c-0.55,0.34-1.08,0.84-1.68,0.96c-0.3,0.06-0.72-0.59-1.28-1.08C448.77,369.64,449.22,369.09,449.53,369.16z M443.98,329.74
		c0.46,0.07,1.04,0.48,1.21,0.9c0.1,0.24-0.58,1.16-0.77,1.12c-0.61-0.13-1.15-0.57-2.11-1.11
		C443.18,330.15,443.62,329.69,443.98,329.74z M433.65,370.18c0.81-0.39,1.67-0.65,2.42-0.92c0.42,0.4,0.8,0.59,0.86,0.87
		c0.07,0.31-0.05,0.9-0.26,1c-0.77,0.39-1.61,0.75-2.45,0.86c-0.32,0.04-0.8-0.55-1.07-0.96C433.08,370.9,433.4,370.3,433.65,370.18
		z M426.1,329.48c0.72,0.5,1.34,1.17,1.98,1.78c0.48,0.46,0.95,0.93,1.43,1.4c-0.84,0.19-1.73,0.67-2.5,0.51
		c-1.73-0.36-2.02-1.93-2.22-3.73C425.28,329.45,425.81,329.28,426.1,329.48z M399.51,346.27c-0.46-0.65-0.87-0.98-0.86-1.29
		c0.02-0.3,0.47-0.58,0.74-0.86c0.23,0.27,0.61,0.52,0.66,0.82C400.09,345.24,399.8,345.6,399.51,346.27z M399.5,331.82
		c-0.3-0.12-0.48-0.56-0.98-1.21c0.76,0,1.19-0.13,1.4,0.03c0.3,0.22,0.44,0.67,0.64,1.02C400.2,331.72,399.78,331.93,399.5,331.82z
		 M399.18,307.96c0.31,0.12,0.55,0.4,0.82,0.61c-0.21,0.19-0.41,0.52-0.63,0.53c-0.23,0.01-0.47-0.29-0.79-0.51
		C398.82,308.33,399.08,307.92,399.18,307.96z M399.36,320.52c0.58,0.11,1.06,0.77,1.59,1.19c-0.55,0.41-1.05,1.05-1.65,1.14
		c-0.45,0.08-1.02-0.53-2.13-1.19C398.32,321.03,398.9,320.44,399.36,320.52z M391.15,328.09c0.71,0.67,1.56,1.1,1.58,1.56
		c0.06,1.38-1.06,1.86-2.18,1.81c-0.45-0.02-1.29-1.08-1.2-1.28C389.71,329.48,390.38,328.94,391.15,328.09z M343.55,395.36
		c0.3,0,0.6,0.59,0.91,0.92c-0.5,0.18-0.99,0.45-1.5,0.51c-0.19,0.03-0.45-0.4-0.79-0.73C342.66,395.79,343.1,395.36,343.55,395.36z
		 M339.31,374.28c0.18,0.21,0.36,0.41,0.66,0.76c-0.4,0.11-0.64,0.24-0.87,0.22c-0.12-0.01-0.33-0.35-0.29-0.45
		C338.91,374.6,339.14,374.45,339.31,374.28z M332.47,385.04c0.69,0.47,1.31,1.05,1.95,1.59c-0.31,0.09-0.62,0.18-1.25,0.36
		c-0.43-0.47-0.97-1.06-1.52-1.65C331.93,385.22,332.32,384.94,332.47,385.04z M333.47,407.52c0.41,0.13,0.76,0.25,1.11,0.36
		c-0.19,0.26-0.36,0.54-0.57,0.78c-0.12,0.14-0.29,0.23-0.45,0.33c-1.04,0.63-1.9,1.92-3.36,0.96c-0.12-0.08-0.2-0.35-0.16-0.5
		C330.54,407.58,332.01,407.49,333.47,407.52z M328.14,438.72c0.35,0.38,0.77,0.72,1.01,1.16c0.08,0.14-0.32,0.54-0.59,0.99
		c-0.39-0.33-0.96-0.59-1.07-0.99C327.41,439.58,327.9,439.11,328.14,438.72z M270.04,498.56c-1.33,0.29-1.05-0.99-1.16-1.81
		c-0.02-0.18,0-0.37,0-1.03c0.11-0.18,0.43-0.7,0.75-1.22c0.38,0.58,1.03,1.14,1.07,1.74C270.74,497.04,270.43,498.47,270.04,498.56
		z M274.33,499.54c-0.08,0.23-0.45,0.35-0.79,0.6c-0.18-0.35-0.46-0.77-0.41-0.83c0.26-0.25,0.62-0.4,0.95-0.58
		C274.18,499,274.41,499.32,274.33,499.54z M309.46,420.75c0.27,0.31,0.59,0.59,0.78,0.94c0.08,0.15-0.12,0.45-0.31,1.03
		c-0.41-0.61-0.71-0.91-0.81-1.26C309.06,421.28,309.34,420.99,309.46,420.75z M288.65,469.16c-0.22,0.08-0.68-0.5-1.37-1.05
		c0.76-0.44,1.2-0.88,1.65-0.89c0.34,0,0.68,0.55,1.03,0.86C289.53,468.47,289.15,468.98,288.65,469.16z M290.8,498.54
		c-0.43-0.67-0.81-1-0.77-1.27c0.04-0.32,0.45-0.58,0.69-0.87c0.21,0.22,0.57,0.43,0.58,0.66
		C291.31,497.41,291.08,497.77,290.8,498.54z M295.56,512.62c-0.86-0.44-1.62-1.07-2.41-1.64c0.53-0.56,1.06-1.12,2.06-2.17
		c0.69,1.26,1.22,1.93,1.37,2.68C296.65,511.8,295.7,512.69,295.56,512.62z M300.32,546.24c0.5-0.57,1.01-1.65,1.63-1.72
		c0.94-0.1,1.95,0.5,2.93,0.83c0.03,0.01,0.02,0.46-0.06,0.49c-1.25,0.54-2.5,1.06-3.78,1.52
		C300.96,547.39,300.68,546.81,300.32,546.24z M304.26,578.18c-0.33-0.35-0.66-0.69-0.99-1.04c0.52-0.44,1.04-0.88,1.57-1.32
		c0.27,0.38,0.64,0.74,0.58,0.84C305.09,577.19,304.66,577.67,304.26,578.18z M305.55,420.28c-0.33-0.14-0.59-0.45-1.18-0.92
		c0.7-0.04,1.06-0.18,1.26-0.05c0.31,0.21,0.5,0.59,0.75,0.89C306.09,420.24,305.77,420.38,305.55,420.28z M310.91,598.72
		c-0.61-1.71-1.22-2.65-1.18-3.56c0.02-0.6,1.1-1.73,1.46-1.64c0.85,0.21,1.67,0.92,2.23,1.65
		C313.55,595.33,312.6,596.36,310.91,598.72z M313.89,563.07c-2.38-1.39-1.55,2.88-3.48,2.07c-0.57-0.24-0.93-1-1.62-1.79
		c0.68-0.93,1.11-2.06,1.9-2.46c1.01-0.52,2.32-1.38,3.45-0.07c0.21,0.24,0.29,0.71,0.24,1.05
		C314.32,562.28,314.06,562.67,313.89,563.07z M309.65,471.55c0.18-0.25,0.32-0.62,0.56-0.72c0.94-0.39,1.9-0.72,2.88-0.97
		c0.16-0.04,0.6,0.4,0.64,0.66c0.04,0.24-0.24,0.71-0.47,0.78c-0.84,0.23-1.71,0.33-2.39,0.45
		C310.34,471.66,310,471.6,309.65,471.55z M314.79,465.68c-0.46,0.45-1,0.91-1.58,1.11c-0.21,0.07-0.65-0.57-1.37-1.25
		c1.17-0.34,1.91-0.57,2.67-0.73C314.54,464.8,314.89,465.59,314.79,465.68z M312.7,439.66c-1.13-0.36-1.99-0.62-2.83-0.92
		c-0.12-0.04-0.28-0.31-0.25-0.41c0.1-0.31,0.23-0.8,0.44-0.86c0.68-0.19,1.41-0.26,2.12-0.31c1.16-0.08,2.78-0.96,2.91,1.11
		C315.11,438.7,313.45,439.24,312.7,439.66z M315.75,427.22c-0.22-0.34-0.36-0.57-0.51-0.8c0.33-0.2,0.64-0.45,0.99-0.59
		c0.09-0.04,0.31,0.24,0.47,0.37C316.42,426.5,316.14,426.81,315.75,427.22z M318.09,435.32c-0.1-0.3-0.37-0.76-0.27-0.88
		c1.01-1.18,1.76-2.8,3.66-2.64c0.2,0.37,0.54,0.89,0.49,0.93c-0.53,0.44-1.12,0.82-1.7,1.2
		C319.56,434.41,318.82,434.86,318.09,435.32z M331.99,495.11c0.82,1.12,1.39,1.61,1.31,1.84c-0.18,0.5-0.71,0.86-1.1,1.28
		c-0.39-0.39-1.07-0.75-1.1-1.17C331.05,496.56,331.55,496,331.99,495.11z M324.64,496.54c0.45,0.29,0.92,0.65,1.19,1.1
		c0.2,0.33,0.12,0.85,0.16,1.29c-0.34-0.09-0.78-0.08-1-0.3c-0.49-0.48-0.86-1.08-1.33-1.7
		C324.15,496.73,324.5,496.46,324.64,496.54z M321.29,507.29c0.29,0.01,0.83,0.8,0.75,1.1c-0.16,0.56-0.68,1.02-1.05,1.53
		c-0.49-0.54-0.97-1.08-1.79-1.99C320.12,507.62,320.71,507.26,321.29,507.29z M322.77,577.93c-0.47,0.45-1.06,0.92-1.67,1.03
		c-0.35,0.07-0.83-0.53-1.59-1.08c1.14-0.46,1.95-0.81,2.78-1.06C322.35,576.81,322.87,577.83,322.77,577.93z M327.2,546.77
		c-0.2,0.92-0.89,1.73-1.69,3.2c-0.86-1.5-1.62-2.33-1.73-3.25c-0.05-0.43,1.07-1.3,1.78-1.48
		C326.53,544.99,327.45,545.62,327.2,546.77z M337.93,610.38c-0.36,0.29-1.02,0.2-1.35,0.25c-1.09-0.23-2.01-0.34-2.85-0.65
		c-0.43-0.16-0.74-0.67-1.11-1.02c0.39-0.13,0.92-0.5,1.16-0.36c1.3,0.77,2.38,0.34,3.58-0.26c0.41-0.21,1.13,0.24,1.71,0.38
		C338.7,609.29,338.43,609.98,337.93,610.38z M347.46,603.47c-0.74-0.16-1.39-0.72-2.55-1.41c0.89-0.72,1.31-1.31,1.84-1.44
		c1-0.25,1.82,0.25,1.72,1.39C348.41,602.55,347.7,603.52,347.46,603.47z M363.86,653.32c-0.39,1.12-1.36,2.12-2.3,2.87
		c-0.21,0.17-1.61-0.73-2.03-1.42c-0.54-0.9-0.65-2.07-1.09-3.65c0.74-0.12,1.28-0.35,1.74-0.24c0.68,0.16,1.29,0.73,1.97,0.84
		C363.17,651.88,364.23,652.27,363.86,653.32z M398.48,656.1c-0.91-0.39-1.67-1.15-2.52-1.78c0.42-0.48,0.66-0.95,0.85-0.93
		c0.87,0.1,1.82,0.16,2.55,0.57c0.48,0.27,0.63,1.13,0.93,1.72C399.68,655.84,398.94,656.3,398.48,656.1z M420.92,664.55
		c-0.31-0.36-0.59-0.56-0.66-0.81c-0.05-0.2,0.18-0.47,0.28-0.7c0.18,0.2,0.45,0.37,0.52,0.6
		C421.14,663.85,421,664.13,420.92,664.55z M428.61,637.79c1.23,0.11,1.96,0.7,1.49,2.08c-0.1,0.3-0.41,0.53-0.63,0.8
		c-0.66-0.77-1.31-1.53-2-2.34C428.03,638.06,428.33,637.77,428.61,637.79z M431.19,703.58c-0.89-0.44-1.6-1.24-2.38-1.9
		c0.44-0.39,0.89-0.78,1.58-1.39c0.88,0.83,1.62,1.53,2.36,2.22C432.22,702.89,431.47,703.72,431.19,703.58z M435.83,655.08
		c-0.45,0.06-0.96-0.41-1.46-0.61c-0.59-0.24-1.2-0.44-1.8-0.66c0.6-0.51,1.21-1.01,1.61-1.35c0.94,0.1,1.58-0.02,1.98,0.24
		c0.51,0.34,0.83,0.98,1.23,1.48C436.87,654.52,436.38,655.01,435.83,655.08z M452.69,653.1c0.78,0.29,1.46,0.84,2.18,1.29
		c-0.39,0.49-0.77,0.98-1.44,1.83c-0.78-0.95-1.33-1.54-1.74-2.21C451.65,653.93,452.48,653.02,452.69,653.1z M454.46,695.57
		c-0.36,0.04-0.73-0.05-2.54-0.23c1.96-0.47,2.45-0.68,2.93-0.67c0.28,0.01,0.54,0.37,0.82,0.57
		C455.26,695.36,454.86,695.52,454.46,695.57z"/>
	<path class="st0" d="M673.51,576.48c-0.4,0.88-0.82,1.74-1.23,2.61c-0.27,0.56-0.54,1.11-0.82,1.66c-0.26,0.52-0.51,1.05-0.78,1.56
		c-0.33,0.65-0.66,1.3-1.01,1.95c-0.39,0.78-0.8,1.55-1.23,2.31c-0.46,0.86-0.94,1.71-1.41,2.56c0.53-0.06,1.05-0.12,1.57-0.17
		c0.02,0,0.13,0.69,0.12,0.69c-0.74,0.17-1.49,0.33-2.24,0.48c-0.45,0.8-0.9,1.59-1.38,2.38c-0.9,1.55-1.84,3.09-2.81,4.62
		c-0.04,0.07-0.09,0.14-0.13,0.21l-21.97-54.15c-0.63-0.28-1.13-0.81-1.35-1.8c-0.04-0.18-0.09-0.36-0.14-0.55
		c-0.18-0.72-0.23-1.3-0.19-1.78l-8.89-21.91l16.86-18.41l-19.41-21.2l32.28-81.7c0.39,0.57,0.77,1.15,1.15,1.73
		c0.46,0.71,0.91,1.42,1.38,2.13c0.48,0.75,0.95,1.51,1.41,2.28c0.22,0.35,0.43,0.69,0.63,1.05c0.35,0.56,0.69,1.13,1.02,1.71
		c1.27,2.14,2.5,4.31,3.67,6.5l17.36-41.14c-4.52-6.31-9.38-12.4-14.57-18.24c-9.52-10.74-20.16-20.6-31.57-29.29
		c-1.38-1.05-2.75-2.07-4.14-3.08l-15.39,34.2c4.23,3.33,8.32,6.86,12.26,10.56l-2.04,5.18c0.35,0.24,0.68,0.47,1.01,0.69
		c-0.61,0.47-1.17,1.19-1.83,1.38l-29.19,73.88l-51.23-126.26c0.63,0.15,1.26,0.29,1.88,0.45c1.05,0.26,2.08,0.52,3.11,0.8
		c0.51,0.13,1.01,0.27,1.51,0.41c1.25,0.34,2.5,0.71,3.74,1.08c0.57,0.17,1.14,0.34,1.7,0.52c0.44,0.13,0.89,0.28,1.32,0.41
		c0.58,0.18,1.17,0.38,1.75,0.57V285.2c-0.96-0.27-1.94-0.52-2.9-0.77c-0.63-0.17-1.27-0.33-1.89-0.48
		c-0.57-0.15-1.15-0.29-1.72-0.41c-0.57-0.15-1.14-0.28-1.72-0.4c-1.16-0.28-2.33-0.54-3.5-0.79c-13.84-2.98-28.04-4.63-42.21-4.91
		c-1.5-0.04-2.98-0.05-4.49-0.05c-0.54,0-1.06,0.01-1.6,0.02c-3.28,0.02-6.56,0.12-9.84,0.28v36.61c3.28-0.22,6.55-0.33,9.84-0.35
		c0.54-0.01,1.06-0.02,1.6-0.02c0.64,0,1.27,0.02,1.9,0.03l15.12,37.26c0.24-0.16,0.49-0.31,0.73-0.47c0.08,0.34,0.33,0.83,0.2,0.98
		c-0.16,0.18-0.35,0.33-0.54,0.48l50.15,123.62l-20.96,22.9l18.82,20.56l-19.16,48.49c0.14,0.14,0.23,0.28,0.22,0.38
		c-0.07,0.87-0.58,1.7-0.91,2.54c-0.13-0.06-0.26-0.11-0.4-0.17L506.4,683.49c-0.18,0-0.36,0-0.55,0c-0.54,0-1.06-0.01-1.6-0.02
		c-0.8,0-1.62,0-2.42-0.02l-0.17-0.01c-2.41-0.05-4.83-0.15-7.25-0.3v36.61c2.13,0.11,4.25,0.18,6.37,0.23
		c1.16,0.02,2.31,0.04,3.47,0.04c0.54,0.01,1.06,0.02,1.6,0.02c3.49,0,6.71-0.07,9.74-0.22c14.37-0.61,28.72-2.64,42.64-6.03
		c2.02-0.49,4.04-1.01,6.04-1.56v-38.16c-4.82,1.61-9.71,3.01-14.68,4.21c-0.68,0.16-1.36,0.3-2.04,0.46l53.38-135.11l8.73,21.53
		c0.35,0.18,0.7,0.36,1.05,0.53c-0.2,0.14-0.41,0.34-0.62,0.52l25.85,63.71c-4.17,4.13-8.53,8.07-13.08,11.78l12.65,36.37
		c11.5-8.32,22.25-17.79,31.95-28.16c9.16-9.79,17.36-20.3,24.5-31.4L673.51,576.48z M667.31,350.77c0.09,0.06,0.04,0.37,0.05,0.56
		c-0.28-0.01-0.56,0.01-0.82-0.06c-0.06-0.02-0.03-0.37-0.05-0.71C666.81,350.63,667.1,350.64,667.31,350.77z M634.17,419.6
		c-0.56-0.05-1.53-0.7-1.5-1.01c0.08-0.83,0.59-1.62,0.93-2.42c0.76,0.69,1.51,1.38,2.69,2.46
		C635.28,419.13,634.7,419.65,634.17,419.6z M651.11,396.45c0.1,0.55,0.1,1.13,0.14,1.6c-0.05,0.47,0,0.88-0.14,1.21
		c-0.22,0.48-0.49,1.12-0.89,1.27c-0.39,0.15-1.17-0.07-1.44-0.41c-0.67-0.87-1.27-1.84-1.68-2.86c-0.64-1.6,0.7-1.83,1.7-2.24
		C650.19,394.44,650.87,395.1,651.11,396.45z M646.49,342.68c0.36,0.28,0.72,0.56,1.23,0.95c-0.45,0.54-0.76,0.9-1.06,1.26
		c-0.22-0.43-0.54-0.83-0.61-1.28C646,343.33,646.33,342.99,646.49,342.68z M648.47,377.05c0.37,0,0.73,0.65,1.1,1
		c-0.46,0.4-0.88,1.07-1.38,1.13c-0.86,0.11-1.78-0.1-2.64-0.29c-0.17-0.04-0.23-0.59-0.53-1.43
		C646.25,377.29,647.36,377.04,648.47,377.05z M633.67,383.84c0.31-0.47,1.05-1.03,1.51-0.95c1.72,0.29,2.02,1.11,1.62,3.2
		c-0.12,0.64,0.04,1.35,0.16,2.01c0.09,0.51,0.31,1,0.47,1.5c-0.7,0.03-1.48,0.28-2.09,0.05c-1.95-0.75-1.84-2.49-1.73-3.6
		C633.62,384.91,633.42,384.22,633.67,383.84z M632.56,410.94c0.46-0.25,1.02-0.33,1.35-0.42c2,0.26,3.81,0.44,5.59,0.77
		c0.38,0.07,0.99,0.82,0.92,1.04c-0.22,0.65-0.8,1.73-1.13,1.69c-2.3-0.25-4.58-0.73-6.85-1.21c-0.19-0.04-0.38-0.65-0.36-0.98
		C632.09,411.52,632.3,411.08,632.56,410.94z M559.8,285.65c0.61,0.41,1.17,0.97,1.57,1.59c0.09,0.14-0.54,0.76-1.09,1.49
		c-0.63-0.86-1.16-1.48-1.53-2.18C558.71,286.45,559.69,285.57,559.8,285.65z M506.85,282.67c-1.82-1.13-3.55-2.39-6.3-4.32
		c1.81,0,2.49-0.21,2.87,0.04c1.63,1.06,3.18,2.26,4.76,3.41C507.72,282.11,507.04,282.79,506.85,282.67z M515.7,329.97
		c-0.12,0.06-0.44-0.33-0.66-0.52c0.29-0.33,0.58-0.66,0.86-0.99c0.38,0.31,0.61,0.5,0.85,0.69
		C516.4,329.44,516.09,329.78,515.7,329.97z M508.44,709.09c-0.68-0.14-1.29-0.62-1.93-0.96c-0.44-0.24-0.88-0.49-1.32-0.73
		c0.49-0.12,0.98-0.26,1.47-0.37c0.17-0.04,0.36-0.02,0.72-0.04c0.36,0.03,0.96-0.06,1.42,0.16c0.37,0.18,0.83,0.84,0.75,1.12
		C509.43,708.64,508.77,709.15,508.44,709.09z M517.53,703.18c-0.4-0.02-0.77-0.5-1.38-0.95c0.6-0.39,1.01-0.87,1.36-0.82
		c0.37,0.05,0.68,0.6,1.01,0.94C518.19,702.64,517.85,703.19,517.53,703.18z M518.34,696.4c-0.72-0.29-1.33-0.83-1.99-1.28
		c0.37-0.4,0.75-0.79,1.35-1.44c0.72,0.84,1.25,1.46,1.77,2.07C519.09,695.99,518.59,696.5,518.34,696.4z M526.85,717.3
		c-0.49-0.28-0.89-0.73-1.62-1.37c0.63-0.26,1.09-0.59,1.22-0.48c0.47,0.36,0.82,0.87,1.22,1.32
		C527.4,716.96,526.98,717.38,526.85,717.3z M528.16,655.66c-1.9-0.4-3.07-1.95-3.09-3.89c0.07-0.16,0.1-0.42,0.21-0.46
		c0.29-0.1,0.72-0.27,0.9-0.13c1,0.75,2.02,1.52,2.88,2.42c0.38,0.4,0.41,1.13,0.61,1.72C529.17,655.45,528.62,655.76,528.16,655.66
		z M536.82,696.05c-0.86-0.08-1.71-0.17-2.56-0.32c-0.32-0.06-0.61-0.29-0.92-0.44c0.35-0.26,0.67-0.6,1.06-0.77
		c0.31-0.14,0.7-0.07,1.26-0.11c0.32,0.08,0.86,0.14,1.31,0.37c0.17,0.08,0.17,0.59,0.16,0.9
		C537.13,695.8,536.92,696.05,536.82,696.05z M541.84,606.35c-0.31-0.27-0.61-0.55-1.03-0.92c0.2-0.25,0.43-0.62,0.5-0.59
		c0.37,0.15,0.77,0.35,1.01,0.65C542.39,605.59,542.01,606.05,541.84,606.35z M568.94,606.3c-0.47,0.96-0.88,1.65-1.83,0.31
		c-0.63-0.88-1.56-1.55-2.39-2.28c-0.42-0.37-0.93-0.62-1.34-1c-0.23-0.22-0.53-0.77-0.45-0.86c0.32-0.38,0.75-0.71,1.2-0.91
		c0.31-0.14,0.73-0.03,0.66-0.03c0.8,0.05,1.17,0.12,1.54,0.1C570.04,601.42,570.34,603.45,568.94,606.3z M612.61,456.45
		c-0.26,0.13-0.52,0.27-0.93,0.48c-0.1-0.3-0.28-0.65-0.22-0.71c0.21-0.19,0.51-0.34,0.79-0.35
		C612.36,455.86,612.49,456.25,612.61,456.45z M600.34,470.42c0.4-0.04,1.35,1.04,1.25,1.31c-0.25,0.7-1.05,1.8-1.44,1.73
		c-0.97-0.18-1.83-0.93-3.34-1.81C598.4,471.06,599.35,470.52,600.34,470.42z M600.2,489.19c0.28,0.77,0.98,1.73,0.75,2.26
		c-0.55,1.26-1.55,2.31-3.4,4.87c-1.15-2.47-1.62-3.48-2.09-4.49c0.78-0.25,1.55-0.52,2.33-0.75c0.28-0.08,0.7,0.05,0.87-0.11
		C599.22,490.43,599.69,489.79,600.2,489.19z M598.9,478.04c0.11-0.62,0.46-1.2,0.89-2.16c0.57,0.78,1.08,1.17,1.06,1.55
		c-0.01,0.43-0.4,1.07-0.78,1.2C599.78,478.74,598.88,478.18,598.9,478.04z M595.54,462.88c0.2,0.2,0.41,0.39,0.57,0.63
		c0.03,0.04-0.29,0.41-0.33,0.39c-0.24-0.12-0.45-0.31-0.68-0.5C595.29,463.17,595.41,463.03,595.54,462.88z M572.36,425.85
		c0.29-0.02,0.91,0.61,0.87,0.89c-0.05,0.42-0.54,0.79-0.85,1.18c-0.35-0.3-0.7-0.6-1.21-1.04
		C571.68,426.41,572,425.88,572.36,425.85z M568.93,389.3c0.12,0.16,0.36,0.36,0.33,0.46c-0.07,0.23-0.29,0.4-0.45,0.6
		c-0.12-0.15-0.24-0.3-0.44-0.56C568.55,389.63,568.74,389.47,568.93,389.3z M525.36,316.68c-0.42,0.04-0.92-0.77-1.39-1.21
		c0.52-0.42,1.04-0.84,1.68-1.35c0.55,0.59,0.88,0.95,1.22,1.31C526.37,315.88,525.89,316.63,525.36,316.68z M525.91,312.49
		c-0.34,0.01-0.69-0.54-1.24-1.02c0.56-0.46,1.09-1.07,1.24-0.98c0.48,0.27,0.81,0.79,1.2,1.22
		C526.7,311.99,526.31,312.48,525.91,312.49z M534.42,361.93c-0.64,1.29-1.31,2.59-2.21,3.7c-0.45,0.55-1.38,0.84-2.12,0.92
		c-0.22,0.02-0.55-1.09-0.49-0.96c0.19-1.75,0.22-2.67,0.4-3.55c0.43-2.11,2.15-2.69,4.08-1.34
		C534.36,360.88,534.57,361.63,534.42,361.93z M534.07,282.82c-0.25-0.21-0.73-0.45-0.72-0.64c0.05-0.53,0.3-1.05,0.56-1.85
		c0.6,0.5,1.2,0.9,1.16,1C534.82,281.87,534.42,282.34,534.07,282.82z M540.15,313.15c0.7,1.33,1.28,2,1.32,2.7
		c0.02,0.37-0.88,0.8-1.37,1.2c-0.38-0.53-1-1.03-1.08-1.61C538.96,314.94,539.52,314.36,540.15,313.15z M540.54,373.2
		c-0.43-0.56-0.81-1.05-1.19-1.54c0.45-0.19,0.99-0.62,1.34-0.5c0.54,0.19,0.95,0.76,1.42,1.16
		C541.68,372.56,541.25,372.8,540.54,373.2z M542.13,334c-0.31-0.42-0.97-1-0.87-1.24c0.46-1.03,1.14-1.96,1.74-2.93
		c0.3,0.52,0.59,1.04,1.09,1.91C543.33,332.61,542.73,333.31,542.13,334z M546.28,349.58c-0.11-0.23,0.29-0.73,0.58-1.38
		c0.44,0.5,0.86,0.77,0.91,1.1c0.05,0.34-0.25,0.73-0.4,1.1C546.99,350.14,546.46,349.95,546.28,349.58z M548.04,386.14
		c-0.13-0.22-0.41-0.49-0.35-0.64c0.09-0.26,0.36-0.53,0.62-0.62c0.15-0.05,0.42,0.24,0.81,0.49
		C548.65,385.7,548.35,385.92,548.04,386.14z M548.03,360.84c-0.46-0.69-1.01-1.39-0.94-1.46c0.53-0.56,1.15-1.09,1.83-1.4
		c0.19-0.08,0.72,0.62,1.09,0.95C549.41,359.51,548.81,360.08,548.03,360.84z M556.87,380.74c-0.02,0.23-0.51,0.43-0.78,0.65
		c-0.29-0.16-0.85-0.35-0.84-0.48c0.12-1.08,0.33-2.15,0.55-3.22c0.03-0.15,0.23-0.26,0.35-0.4c0.22,0.25,0.6,0.47,0.63,0.74
		C556.89,378.93,556.93,379.84,556.87,380.74z M558.65,382.93c0.26,0.1,0.53,0.37,0.62,0.62c0.06,0.17-0.19,0.45-0.4,0.89
		c-0.35-0.47-0.6-0.77-0.78-1.1C558.07,383.31,558.52,382.88,558.65,382.93z M559.01,401.81c-0.21-0.27-0.57-0.52-0.61-0.81
		c-0.09-0.7-0.03-1.42-0.03-2.57c0,0,0.29-0.29,0.58-0.58c0.21,0.27,0.52,0.51,0.6,0.82c0.17,0.69,0.33,1.42,0.27,2.11
		C559.79,401.15,559.3,401.47,559.01,401.81z M565.91,369.26c-0.18-0.22-0.35-0.44-0.53-0.66c0.2-0.35,0.36-0.62,0.51-0.88
		c0.2,0.32,0.48,0.62,0.57,0.97C566.5,368.82,566.11,369.07,565.91,369.26z M568.13,457.18c0.18-0.3,0.29-0.75,0.55-0.86
		c0.27-0.12,0.77-0.03,1.01,0.17c1.68,1.41,3.37,2.82,4.91,4.38c0.28,0.28,0.05,1.73-0.19,1.8
		C571.88,463.44,568.06,460.03,568.13,457.18z M569.16,493.67c0.07,0.25,0.13,0.5,0.2,0.75c-0.29,0.04-0.58,0.12-0.87,0.1
		c-0.07,0-0.11-0.33-0.19-0.6C568.6,493.83,568.88,493.75,569.16,493.67z M572.47,515.09c-0.21,0.47-1.89,0.37-2.89,0.32
		c-0.46-0.03-0.98-0.5-1.33-0.9c-0.33-0.37-0.48-0.92-0.72-1.38c0.49-0.14,0.98-0.28,1.21-0.34c0.83,0.14,1.39,0.17,1.9,0.34
		C571.6,513.46,573.13,513.6,572.47,515.09z M573.83,586.83c-0.37-0.27-0.73-0.53-1.09-0.79c0.32-0.33,0.71-0.99,0.95-0.93
		c0.75,0.16,1.45,0.59,2.16,0.92C575.22,586.28,574.59,586.53,573.83,586.83z M577.56,417.69c0.54,0.08,1.02,0.52,1.52,0.81
		c-0.4,0.32-0.76,0.76-1.21,0.9c-0.33,0.11-0.79-0.18-1.19-0.3c-0.22-0.34-0.44-0.68-0.66-1.02
		C576.54,417.94,577.08,417.62,577.56,417.69z M577.65,496.66c-0.15,0.23-0.37,0.41-0.56,0.61c-0.11-0.13-0.23-0.27-0.4-0.47
		c0.23-0.18,0.43-0.37,0.66-0.51C577.37,496.27,577.67,496.62,577.65,496.66z M578.01,555.86c-0.45-0.06-1-0.12-1.53-0.23
		c-0.13-0.03-0.33-0.33-0.31-0.35c0.2-0.27,0.52-0.76,0.66-0.71c0.8,0.24,1.56,0.62,2.33,0.95
		C578.81,555.62,578.46,555.72,578.01,555.86z M581.03,494.59v-0.03l0.01,0.01L581.03,494.59z M581.13,442.16
		c-0.37,0.13-0.92-0.22-1.38-0.37c-0.2-0.29-0.4-0.57-0.6-0.86c0.49-0.17,0.99-0.47,1.48-0.47c0.46,0,0.93,0.33,1.39,0.52
		C581.73,441.4,581.52,442.02,581.13,442.16z M590.37,480.01c0.25-0.56,0.74-1.01,1.32-1.74c0.13,0.61,0.39,1.06,0.26,1.35
		c-0.23,0.53-0.69,0.95-1.05,1.42C590.71,480.69,590.27,480.23,590.37,480.01z M591.42,484.82c0.12-0.16,0.23-0.3,0.34-0.44
		c0.14,0.14,0.35,0.26,0.39,0.42c0.03,0.11-0.2,0.28-0.31,0.42C591.7,485.09,591.57,484.96,591.42,484.82z M592.45,492.19
		c-0.19-0.09-0.36-0.18-0.53-0.26c0.12-0.22,0.23-0.44,0.35-0.67c0.14,0.14,0.35,0.26,0.4,0.43
		C592.69,491.83,592.53,492.02,592.45,492.19z M594.79,517.09c-0.36-0.48-0.83-0.93-1.05-1.47c-0.11-0.28,0.21-0.74,0.33-1.12
		c0.48,0.52,0.97,1.04,1.62,1.74C595.29,516.61,595.04,516.85,594.79,517.09z M597.28,538.8c-0.46-0.69-0.93-1.38-1.56-2.32
		c0.48-0.42,0.87-0.76,1.26-1.1c0.39,0.55,1.04,1.08,1.1,1.67C598.14,537.6,597.57,538.21,597.28,538.8z M598.61,501.13
		c-0.56,0.02-1.14-0.65-1.71-1.02c0.37-0.45,0.74-0.91,1.24-1.52c0.84,0.57,1.38,0.94,1.92,1.32
		C599.58,500.35,599.11,501.12,598.61,501.13z M602.29,516.76c-0.51-1.01-1.12-1.98-1.48-3.05c-0.1-0.3,0.52-0.86,0.82-1.3
		c0.51,0.84,1.03,1.68,1.53,2.5C602.78,515.72,602.53,516.24,602.29,516.76z M606.5,540.17c-0.44-0.48-0.83-0.91-1.23-1.34
		c0.41-0.24,0.87-0.74,1.22-0.67c0.54,0.11,1.01,0.61,1.5,0.94C607.6,539.39,607.2,539.67,606.5,540.17z M610.11,428.97
		c0.42-0.23,0.69-0.5,0.88-0.45c0.3,0.08,0.54,0.38,0.8,0.59c-0.27,0.12-0.54,0.33-0.81,0.33
		C610.76,429.45,610.53,429.21,610.11,428.97z M612.21,477.23c-0.37-0.51-0.75-1.03-1.25-1.72c0.42-0.4,0.79-0.74,1.15-1.08
		c0.2,0.42,0.56,0.84,0.56,1.26C612.67,476.2,612.38,476.72,612.21,477.23z M616.66,563.02c-0.71,0.05-1.43,0.15-2.12,0.04
		c-0.5-0.08-0.95-0.45-1.42-0.69c0.46-0.11,0.91-0.24,1.37-0.33c0.36-0.07,0.73-0.08,1.39-0.16c0.06,0,0.46-0.1,0.77,0.03
		c0.21,0.09,0.32,0.49,0.4,0.77C617.08,562.77,616.81,563.01,616.66,563.02z M617.65,502.08c-1.02,0.09-2.21-0.26-3.11-0.79
		c-0.66-0.39-0.96-1.4-1.42-2.13c0.73-0.26,1.46-0.52,2.19-0.78c0.05,0.2,0.09,0.41,0.14,0.61c0.7-0.05,1.4-0.04,2.08-0.15
		c0.73-0.12,1.74-1.45,1.98,0.31C619.71,500.49,619.23,501.94,617.65,502.08z M619.34,471.5c-0.91,0.07-1.84,0.19-2.73,0.07
		c-0.37-0.05-0.67-0.66-1-1.01c0.32-0.15,0.62-0.37,0.95-0.44c0.35-0.08,0.74-0.02,1.34-0.02c0.32,0.03,0.89,0,1.41,0.17
		c0.22,0.07,0.33,0.56,0.41,0.89C619.74,471.23,619.48,471.49,619.34,471.5z M631.13,659.46c-0.35-0.27-0.7-0.54-1.16-0.91
		c0.51-0.6,0.84-0.98,1.17-1.37c0.29,0.36,0.83,0.74,0.81,1.09C631.93,658.69,631.42,659.07,631.13,659.46z M637.66,573.88
		c-0.34-0.04-0.6-0.71-0.86-1.05c0.13-0.88,0.02-1.75,0.39-2.31c0.42-0.66,1.25-1.05,1.9-1.55c0.29,0.75,0.81,1.5,0.81,2.26
		c0,0.66-0.47,1.4-0.9,1.97C638.7,573.57,638.08,573.92,637.66,573.88z M640.57,656.32c-0.35-0.35-1.05-0.8-0.98-1.02
		c0.19-0.63,0.68-1.17,1.06-1.75c0.38,0.31,0.76,0.61,1.41,1.14C641.46,655.34,641.02,655.83,640.57,656.32z M649.99,640.87
		c-0.1-0.33-0.21-0.66-0.41-1.29c0.4-0.35,0.89-0.78,1.38-1.21c0.2,0.42,0.67,1.05,0.54,1.22
		C651.12,640.11,650.51,640.45,649.99,640.87z M657.87,602.81c-0.28,0.08-0.68-0.1-0.98-0.26c-0.28-0.15-0.48-0.43-0.72-0.66
		c0.29-0.11,0.59-0.23,0.78-0.3c0.45,0,0.81-0.06,1.13,0.02c0.3,0.08,0.55,0.31,0.83,0.48
		C658.56,602.33,658.25,602.69,657.87,602.81z M660.09,650.06c-0.34-0.45-0.68-0.9-1.13-1.5c0.41-0.5,0.7-0.85,0.99-1.2
		c0.26,0.47,0.7,0.92,0.74,1.41C660.73,649.18,660.31,649.63,660.09,650.06z M668.47,640.54c-0.39,0.5-0.91,0.89-1.35,1.29
		c-0.48-0.43-0.72-0.64-0.96-0.85c0.65-0.45,1.29-0.9,1.94-1.34C668.23,639.95,668.56,640.42,668.47,640.54z M677.46,608.37
		c-0.61-0.05-1.07,0.05-1.31-0.14c-0.79-0.61-1.5-1.32-2.2-2.02c-0.01-0.01,0.38-0.65,0.64-0.71c1.56-0.38,3.25,0.46,3.49,1.79
		C678.14,607.62,677.65,608.07,677.46,608.37z M677.95,601.61c-0.35-0.03-0.69-0.27-1.03-0.43c0.18-0.34,0.36-0.67,0.72-1.33
		c0.39,0.52,0.71,0.76,0.76,1.06C678.43,601.13,678.1,601.62,677.95,601.61z"/>
	<path d="M229.47,616.73l-9.4-5.35l5.52-9.44l-11.73-44.72l-9.4-5.35l5.52-9.45l-1.96-7.48l-20.7,5.43
		c0.04,0.13,0.07,0.26,0.04,0.37c-0.08,0.26-0.39,0.45-0.6,0.66c-0.13-0.21-0.27-0.41-0.48-0.74c0.01-0.01,0.02-0.02,0.03-0.03
		l-8.05,2.11l1.36,5.2c-0.01-0.86,0-1.72,0.01-2.58c0-0.05,1.58-0.07,2.42-0.11c0.01,0.55-0.07,1.11,0.04,1.63
		c0.28,1.3,0.68,2.57,0.96,3.87c0.17,0.81,0.39,1.68,0.25,2.46c-0.08,0.44-0.85,0.75-1.58,1.32c-0.16-0.18-0.33-0.35-0.5-0.51
		l0.97,3.68l14.96-3.93l3.88,14.79l-21.12,5.54c0.52,0.65,1.03,1.32,1.52,2c0.04,0.06-0.81,0.77-1.25,1.17
		c-0.62-0.89-1.25-1.8-1.91-2.74l-14.48,3.8l-9.45-5.52l-5.52,9.44L111.76,592l-1.97-7.48l-9.57,2.51c-0.21,0.5-0.42,1.01-0.65,1.5
		c-0.47,0.98-1.89,1.49-2.88,2.22c-0.37-0.73-0.74-1.46-1.25-2.46l-0.62,0.16l11.74,44.72l3.82-1c-0.08-0.06-0.15-0.13-0.23-0.19
		c0.39-0.5,0.73-0.99,0.75-0.97c0.35,0.23,0.68,0.5,1.01,0.76l9.6-2.52l-1.96-7.48l37.07-9.73l9.44,5.52l5.52-9.44l37.24-9.77
		l3.93,14.96l-5.98,1.57c0.21,0.21,0.4,0.48,0.61,0.69c-0.81,0.14-1.62,0.31-2.44,0.38c-0.06,0.01-0.15-0.21-0.26-0.52l-6.9,1.81
		l3.88,14.79l29.76-7.81L229.47,616.73z M207.27,540.78c0.3,0.2,0.6,0.41,0.97,0.67c-0.31,0.44-0.48,0.69-0.66,0.93
		c-0.26-0.27-0.62-0.51-0.74-0.83C206.78,541.37,207.12,541.04,207.27,540.78z M190.57,554.6c-0.72-1.24-2.15-2.62-1.96-3.69
		c0.22-1.24,1.88-2.23,2.91-3.32c0.33,0.46,0.66,0.92,1.08,1.52C191.87,551.07,191.22,552.84,190.57,554.6z M196.85,542.61
		c-0.13,0.08-0.36,0.01-0.87,0.01c-1.29-0.26-2.9-0.55-4.49-0.93c-0.25-0.06-0.51-0.55-0.56-0.87c-0.03-0.18,0.4-0.62,0.6-0.6
		c1.79,0.11,3.59,0.24,5.36,0.5c0.43,0.06,0.8,0.64,1.19,0.98C197.68,542,197.29,542.33,196.85,542.61z M105.96,620.01
		c-0.85,0.1-1.71,0.04-2.75,0.04c0.34-0.62,0.5-1.14,0.65-1.14c0.87,0,1.73,0.12,2.6,0.2C106.3,619.43,106.16,619.99,105.96,620.01z
		 M105.48,593.01c-0.73,0.01-1.47-0.92-2.21-1.43c0.93-0.87,1.87-1.74,2.8-2.61c0.46,0.58,0.93,1.17,1.79,2.25
		C106.86,592.02,106.17,593,105.48,593.01z M110.26,629.03c-0.39-0.44-0.86-0.84-0.81-0.93c0.31-0.54,0.72-1.04,1.17-1.46
		c0.06-0.05,0.58,0.41,0.89,0.63C111.15,627.77,110.8,628.27,110.26,629.03z M112.19,610.62c-0.1-0.23-0.26-0.47-0.27-0.7
		c0-0.11,0.32-0.36,0.43-0.32c0.21,0.06,0.38,0.28,0.69,0.53C112.64,610.35,112.42,610.49,112.19,610.62z M121.99,607.44
		c-0.1,0.02-0.24-0.2-0.37-0.32c0.14-0.13,0.26-0.33,0.42-0.36c0.1-0.02,0.25,0.21,0.39,0.33
		C122.27,607.23,122.14,607.42,121.99,607.44z M127.43,604.43c-0.3-0.42-0.78-0.82-0.83-1.26c-0.04-0.35,0.46-0.76,0.93-1.45
		c0.43,0.77,0.9,1.23,0.84,1.61C128.32,603.73,127.77,604.06,127.43,604.43z M140.84,591.7c-0.29-0.43-0.64-0.79-0.58-0.88
		c0.21-0.32,0.54-0.58,0.87-0.78c0.05-0.03,0.56,0.48,0.52,0.59C141.51,590.98,141.2,591.26,140.84,591.7z M150.92,608.54
		c-0.58,0.04-1.19-0.4-1.79-0.63c0.26-0.69,0.29-1.18,0.52-1.32c1.36-0.85,2.44,0.01,3.51,0.74c0.13,0.09,0.16,0.32,0.24,0.48
		C152.57,608.08,151.76,608.48,150.92,608.54z M151.99,594.13c-0.28,0.13-0.98-0.68-1.49-1.06c0.76-0.68,1.53-1.36,2.33-2.08
		c1.07,0.52,1.67,0.81,2.27,1.1C154.07,592.79,153.1,593.61,151.99,594.13z M171.31,601.53c-0.32-0.46-0.92-0.94-0.89-1.37
		c0.03-0.5,0.62-0.96,1.2-1.75c0.41,0.89,0.89,1.45,0.82,1.93C172.37,600.79,171.71,601.14,171.31,601.53z M177.61,595.21
		c-0.99-0.12-1.9-0.82-3.76-1.74c2.35-1.33,3.28-2.17,3.59-1.97c0.75,0.47,1.44,1.35,1.67,2.2
		C179.21,594.06,178.08,595.27,177.61,595.21z M185.13,582.07c-0.11,0.05-0.48-0.47-0.73-0.73c0.34-0.32,0.68-0.63,1.11-1.03
		c0.45,0.34,0.76,0.57,1.06,0.8C186.1,581.45,185.65,581.84,185.13,582.07z M189.1,580.74c-0.1,0.09-0.78-0.52-1.6-1.09
		c0.72-0.59,1.16-1.14,1.72-1.32c0.26-0.09,0.75,0.5,1.14,0.79C189.95,579.67,189.6,580.29,189.1,580.74z M206.45,578.08
		c-1.13-0.65-2.15-1.48-3.55-2.49c0.9-1.09,1.29-1.56,1.69-2.03c1.04,1.22,2.07,2.44,3.11,3.66
		C207.27,577.52,206.64,578.19,206.45,578.08z M211.29,577.31c-0.46,1-1.4,1.1-2.17,0.34c-0.47-0.46-0.7-1.18-1.35-2.37
		c1.55,0,2.56,0,3.58,0C211.34,575.96,211.55,576.75,211.29,577.31z"/>
	<path d="M275.75,689.78c-0.15,0.13-0.29,0.25-0.33,0.22c-0.58-0.33-1.08-0.8-1.87-1.43c0.24-0.17,0.45-0.33,0.66-0.48l-19.73-21.65
		l-11.3,10.3l2.03,2.23c0.37-0.84,0.74-1.67,1.1-2.51c0.01-0.08,0.03-0.16,0.04-0.25l-0.01-0.01c0.01-0.05,0.02-0.09,0.04-0.14
		c-0.04-0.57-0.07-1.14-0.11-1.71c0.19,0,0.38,0,0.56,0c-0.15,0.57-0.3,1.14-0.45,1.71c0.01,0.06,0.01,0.13,0.01,0.19
		c-0.03,0.07-0.06,0.13-0.08,0.2c-0.16,1.06-0.31,2.13-0.47,3.2l2.55,2.8l-28.45,25.93L209,707.88l-0.51,10.93l-28.1,25.61
		c0.24,0.83,0.37,1.72,0.4,2.58c0.01,0.19-1.01,0.7-1.19,0.57c-0.84-0.63-2.13-1.39-2.2-2.2c-0.1-1.1,0.12-2.24,0.38-3.38
		l-2.82-3.09l-11.43,10.42l31.14,34.17l11.43-10.42l-5.21-5.72l28.33-25.81l10.3,11.31l-28.32,25.81l-1.02,21.85l15.51,17.02
		l11.43-10.42l-5.21-5.72l28.33-25.81l0.63-10.8l10.81,0.38l28.46-25.93l1-21.61L275.75,689.78z M184.27,760.47
		c-0.41,0.05-0.9-0.45-1.35-0.71c0.62-0.45,1.23-0.91,1.99-1.46c0.44,0.56,0.73,0.93,1.02,1.29
		C185.39,759.91,184.86,760.4,184.27,760.47z M194.72,748.65c-1.35-0.47-2.67-1.03-3.92-1.73c-0.27-0.15-0.26-1-0.2-1.5
		c0.04-0.27,0.43-0.63,0.73-0.71c2.06-0.57,4.22,0.92,4.37,3.23C195.44,748.13,194.96,748.73,194.72,748.65z M204.16,735.28
		c-0.08,0.05-0.37-0.1-0.43-0.22c-0.61-1.31-1.31-2.61-1.71-3.98c-0.12-0.39,0.55-1.39,0.99-1.48c0.51-0.11,1.52,0.35,1.67,0.79
		c0.27,0.81,0.08,1.78,0.08,2.68c0.04,0.54,0.15,1.1,0.08,1.63C204.81,734.92,204.42,735.13,204.16,735.28z M214.03,718.75
		c-0.27,0.07-0.71-0.58-1.42-1.21c0.87-0.39,1.43-0.81,2-0.84c0.3-0.02,0.63,0.65,0.95,1.01
		C215.06,718.08,214.59,718.61,214.03,718.75z M226.66,739.05c-0.69-0.87-1.96-1.78-1.91-2.62c0.06-1.1,1.15-2.15,1.8-3.22
		c0.51,0.95,1.02,1.89,1.63,3C227.58,737.33,227.12,738.19,226.66,739.05z M234.03,720.71c-0.48,0.82-1.32,1.42-2.02,2.1
		c-0.36-0.43-0.72-0.86-1.31-1.57c0.89-0.84,1.62-1.52,2.34-2.2C233.4,719.61,234.19,720.44,234.03,720.71z M237.52,710.87
		c-0.49,1.03-1.21,1.96-1.89,2.88c-0.08,0.1-0.51-0.06-0.78-0.1c0.43-0.97,0.91-1.93,1.29-2.93c0.29-0.78,0.42-1.61,0.67-2.41
		c0.18-0.6,0.43-1.18,0.65-1.77c0.35,0.51,0.7,1.03,0.8,1.18C237.93,709.18,237.89,710.11,237.52,710.87z M265.95,688.88
		c-0.39,0.26-0.75,0.6-1.17,0.73c-0.11,0.04-0.62-0.58-0.58-0.84c0.04-0.29,0.5-0.52,0.93-0.91
		C265.48,688.3,265.72,688.59,265.95,688.88z M263.53,677.76c0.46,0.42,1.08,0.77,1.31,1.3c0.13,0.28-0.4,0.87-0.63,1.32
		c-0.52-0.4-1.04-0.8-1.79-1.37C262.94,678.42,263.23,678.09,263.53,677.76z M243.5,687.5c0.18,0.41,0.59,0.89,0.49,1.2
		c-0.29,0.95-0.78,1.83-1.2,2.74c-0.35-0.4-0.7-0.8-1.25-1.42C242.3,689.05,242.9,688.27,243.5,687.5z M251.33,749.06
		c-0.91,0.01-1.83-0.12-2.91-0.22c0.34-0.69,0.52-1.2,0.61-1.19c0.99,0.17,1.96,0.43,2.94,0.66
		C251.75,748.57,251.54,749.05,251.33,749.06z M271.68,748.35c-0.1,0.61-1.1,1.13-1.78,1.56c-0.23,0.15-0.7-0.08-1.06-0.13
		c-0.05,0.12-0.11,0.24-0.16,0.36c-0.84-0.39-2.08-0.56-2.43-1.22c-0.55-1.04,0.95-1.91,3-1.77c0.18,0.01,0.36,0,0.54-0.01
		C270.76,747.05,271.89,747.03,271.68,748.35z M272.92,757.99c-0.11,0.08-0.99-0.58-0.94-0.72c0.18-0.6,0.57-1.13,1-1.88
		c0.67,0.56,1.04,0.87,1.4,1.18C273.9,757.05,273.47,757.6,272.92,757.99z M272.79,731.54c-0.03,0.03-0.57-0.51-1.12-1
		c0.99-0.96,1.78-1.72,2.56-2.47c0.22,0.43,0.74,1.08,0.61,1.26C274.27,730.15,273.53,730.85,272.79,731.54z M277.07,729.67
		c-0.05,0.04-0.41-0.29-1.41-1.01c0.68-0.2,1.06-0.4,1.45-0.39c0.21,0,0.62,0.42,0.58,0.55
		C277.59,729.14,277.33,729.44,277.07,729.67z M250.95,742.43l-10.3-11.3l10.98-10c-0.32-0.25-0.65-0.52-0.96-0.81
		c-0.18-0.17-0.15-0.95-0.04-0.99c0.38-0.16,0.98-0.3,1.24-0.1c0.33,0.25,0.63,0.54,0.93,0.85l16.31-14.87l10.3,11.3L250.95,742.43z
		 M289.42,708.83c-0.59-1.03-1.25-2.03-1.72-3.11c-0.1-0.23,0.45-0.76,0.71-1.16c0.88,0.81,1.76,1.62,3.04,2.8
		C290.43,708.1,289.93,708.46,289.42,708.83z M297.51,727.99c-0.94-1.08-1.63-1.59-1.87-2.27c-0.09-0.26,0.85-1.27,1.29-1.25
		c0.53,0.02,1.28,0.69,1.47,1.24C298.56,726.16,298,726.84,297.51,727.99z"/>
	<path d="M400.24,890.86l5.47-38.36c-0.23-0.52-0.45-1.05-0.45-1.57c0-0.56,0.68-1.12,1.68-2.63c0.04,0.33,0.08,0.62,0.12,0.89
		l8.96-4.22L408.39,834l5.27-36.41l4.14,1.49l5.18-14.39l-46.31-16.68l-5.18,14.39l4.3,1.55l-20.49,33.54l-12.88,3.58l4.66,9.9
		l-20.43,33.38l-7.28-2.62l-5.24,14.55l29.44,10.6l0.17-0.48c-0.02-0.07-0.03-0.13-0.06-0.2c0.05-0.01,0.09-0.01,0.14-0.02
		l4.99-13.85l-7.28-2.62l12.27-20.06l20.01,7.21l-4.17,22.98l-7.94-2.86l-5.24,14.55l45.65,16.44l5.24-14.56L400.24,890.86z
		 M409.32,783.26c0.21,0.18,0.46,0.34,0.6,0.57c0.04,0.07-0.25,0.49-0.3,0.47c-0.25-0.08-0.46-0.25-0.7-0.4
		C409.11,783.6,409.21,783.43,409.32,783.26z M409.57,791.16c0.02-0.01,0.28,0.53,0.58,1.11c-0.67,0.42-1.34,0.88-2.06,1.21
		c-0.06,0.03-0.49-0.77-0.75-1.18C408.09,791.91,408.82,791.51,409.57,791.16z M339.16,850.85c-0.12,0-0.24-0.25-0.36-0.4
		c0.12-0.16,0.23-0.32,0.34-0.47c0.17,0.19,0.33,0.38,0.5,0.56C339.48,850.66,339.32,850.85,339.16,850.85z M342.05,872.76
		c0.06,0.21-0.19,0.52-0.3,0.78c-0.49-1.36-0.98-2.73-1.64-4.57c0.07-0.02,0.57-0.18,0.58-0.15
		C341.18,870.12,341.65,871.43,342.05,872.76z M364.34,892.58c-0.31-1.86-0.62-2.6-0.49-3.25c0.12-0.63,0.69-1.16,1.07-1.74
		c0.1,0.73,0.3,1.47,0.28,2.2C365.17,890.36,364.87,890.91,364.34,892.58z M364.84,884.59c-1.02-0.18-1.97-0.78-2.94-1.21
		c0.91-0.55,1.82-1.11,3.02-1.85c0.48,0.64,1.22,1.2,1.17,1.67C366.03,883.74,365.19,884.66,364.84,884.59z M397.89,776.93
		c0.53,0.29,1.35-0.05,2.02,0.04c0.37,0.05,1,0.39,1,0.62c0.01,0.5-0.15,1.2-0.5,1.46c-0.56,0.41-1.39,0.43-1.99,0.8
		c-0.68,0.41-1.25,1.02-1.87,1.55c-0.4-0.94-0.81-1.88-0.95-2.2C395.61,776.79,396.05,775.93,397.89,776.93z M364.37,823.76
		c0.24-0.23,0.6-0.6,0.82-0.54c0.71,0.17,1.42,0.44,2.05,0.81c0.23,0.13,0.39,0.69,0.3,0.97c-0.09,0.27-0.52,0.43-1.07,0.84
		c-0.63-0.47-1.35-1-2.03-1.56C364.34,824.2,364.3,823.84,364.37,823.76z M376.68,841.63l-14.72-5.3l22.34-36.61L376.68,841.63z
		 M386.05,853.69c-0.59-0.3-1.12-0.82-1.52-1.37c-0.08-0.12,0.47-0.72,1-1.49c0.69,0.91,1.17,1.54,1.64,2.17
		C386.8,853.25,386.27,853.79,386.05,853.69z M396.51,812.79c-0.38-0.45-1.26-1.04-1.36-1.74c-0.2-1.37,0.47-2.91-1.22-3.83
		c-0.18-0.1-0.04-0.97,0.12-1.42c0.05-0.15,0.72-0.27,0.96-0.13c1.25,0.71,2.64,1.32,3.63,2.31
		C400.14,809.48,399.04,812.34,396.51,812.79z"/>
	<path d="M558,818.77l15.36-1.84l-3.67-30.55l-7.68,0.92l-6.76,8.6l-8.6-6.76l-53.41,6.42l1.49,12.44c0.12,0.17,0.2,0.33,0.17,0.42
		c-0.02,0.06-0.06,0.13-0.09,0.2l0.25,2.12l7.68-0.92l5.09,42.41l-6.76,8.6l8.58,6.58l4.09,34.04l-7.68,0.92l1.84,15.36l45.91-5.51
		l-1.84-15.36l-7.68,0.92l-4.09-34.04l15.19-1.82l0.92,7.68l5.45-0.65c0.3-0.3,0.58-0.63,0.91-0.68c0.27-0.04,0.7,0.19,0.95,0.46
		l8.05-0.97l-3.67-30.55l-15.36,1.84l0.92,7.68l-15.19,1.82l-5.09-42.41l22.87-2.75L558,818.77z M564.36,843.61
		c0.54,0.05,1.07,0.25,1.57,0.37c0.39-0.11,0.77-0.15,1.09-0.31c0.66-0.32,1.33-0.81,1.55,0.41c0.06,0.35,0.08,0.92-0.11,1.06
		c-0.52,0.38-1.17,0.84-1.75,0.81c-0.89-0.05-1.8-0.38-2.61-0.78c-0.34-0.17-0.46-0.83-0.67-1.26
		C563.74,843.8,564.06,843.58,564.36,843.61z M552.97,855.8c0.27-0.4,0.7-0.8,1.15-0.95c0.49-0.16,1.06-0.04,1.86-0.04
		c0.1,0.01,0.46,0.03,0.82,0.06c-0.3,0.28-0.59,0.56-0.89,0.84c-0.39,0.37-0.72,0.87-1.18,1.07c-0.4,0.17-0.98,0.1-1.41-0.06
		C553.1,856.63,552.86,855.96,552.97,855.8z M519.91,826.76c-1.09-0.23-1.81-0.31-2.47-0.56c-0.25-0.1-0.54-0.67-0.46-0.91
		c0.14-0.42,0.52-1.06,0.83-1.07c0.69-0.04,1.42,0.19,2.1,0.41c0.6,0.2,1.15,0.54,1.72,0.81
		C521.01,825.92,520.38,826.4,519.91,826.76z M524.93,798.68c-0.53,0.04-1.08-0.24-2.15-0.52c0.94-0.63,1.42-1.2,1.89-1.2
		c0.44,0,0.88,0.62,1.32,0.97C525.64,798.2,525.3,798.66,524.93,798.68z M534.65,884.59c0.42,0.2,0.75,0.74,0.95,1.22
		c0.09,0.21-0.34,0.88-0.39,0.86c-0.59-0.19-1.15-0.47-2.18-0.94C533.92,885.08,534.44,884.49,534.65,884.59z"/>
	<path d="M707.62,855.3c0.74,0.02,1.83,0.12,2.22,0.85l13.84-8.79l-8.29-13.06l-6.53,4.15l-18.38-28.94l12.91-8.2l4.15,6.53
		l13.06-8.29l-16.5-25.97l-13.06,8.29l4.15,6.53l-12.91,8.2l-22.9-36.06l19.44-12.35l8.29,13.06l13.06-8.29l-16.49-25.97l-6.53,4.15
		l-2.38,10.68l-10.68-2.38l-45.41,28.84l8.2,12.91l6.53-4.15l22.9,36.07l-2.38,10.68l10.58,2.23l18.38,28.94l-6.53,4.15l8.29,13.06
		l22-13.97c-0.31-0.44-0.55-0.85-0.62-1.27C705.95,856.45,707.06,855.29,707.62,855.3z M662.89,753.42
		c0.71-0.05,1.49,0.04,2.14,0.32c0.36,0.16,0.77,0.87,0.7,1.25c-0.11,0.57-0.61,1.07-0.96,1.63c-1.04-0.3-1.83-0.34-2.39-0.73
		c-0.7-0.49-1.21-1.28-1.8-1.93C661.35,753.77,662.11,753.47,662.89,753.42z M631.9,776.65c-0.58-0.15-1.09-0.61-1.91-1.13
		c0.69-0.54,1.2-1.14,1.4-1.05c0.56,0.26,0.99,0.81,1.47,1.24C632.53,776.05,632.13,776.71,631.9,776.65z M636.49,776.42
		c-0.57-0.54-0.92-0.89-1.28-1.23c0.33-0.32,0.69-0.91,0.99-0.88c0.38,0.03,0.87,0.51,1.02,0.91
		C637.32,775.46,636.82,775.91,636.49,776.42z M660.12,813.95c-0.12,0.35-0.85,0.48-1.3,0.71c-0.21-0.46-0.64-0.95-0.59-1.38
		c0.1-0.9,0.41-1.79,0.74-2.63c0.08-0.22,0.58-0.27,0.89-0.39c0.28,0.21,0.81,0.44,0.79,0.62
		C660.56,811.91,660.44,812.97,660.12,813.95z M690.3,836.36c-0.64-0.96-1.17-1.65-1.54-2.43c-0.06-0.12,0.85-0.9,0.88-0.87
		c0.61,0.53,1.23,1.09,1.65,1.77C691.39,835,690.78,835.63,690.3,836.36z M698.91,845.41c-2.05,0.62-5.15-2.17-5.06-4.61
		c0.01-0.39,0.62-0.76,1.25-1.49c1.52,1.87,2.9,3.54,4.22,5.26C699.4,844.68,699.12,845.34,698.91,845.41z"/>
	<path d="M843.15,716.63c-1.01-0.09-1.99-0.6-2.98-0.92c0.84-0.34,1.7-0.69,2.6-1.05l-7.96-5.39l-4.34,6.4l-31.73-21.5l-2.06-10.74
		l-10.75,2.06l-31.87-21.6l4.34-6.4l-12.66-8.58l-25.94,38.27l12.66,8.58l4.34-6.4l31.87,21.6l2.06,10.74l10.74-2.06l2.53,1.71
		c0.68-0.36,1.2-0.64,1.75-0.8c0.15-0.04,0.8,0.95,0.73,1.02c-0.26,0.3-0.56,0.61-0.88,0.86l27.6,18.71l-4.34,6.4l12.81,8.68
		l25.94-38.28l-2.33-1.58C844.57,716.53,843.85,716.69,843.15,716.63z M748.86,656.64c1.01,0.67,2.03,1.33,3.04,2
		c-0.31,0.4-0.63,0.8-0.87,1.11c-1.78,0.12-2.44-0.85-2.65-2.26C748.34,657.24,748.69,656.93,748.86,656.64z M749.92,688.24
		c-0.08,0.06-0.74-0.63-1.64-1.42c1.15-0.59,1.92-1.1,2.76-1.37c0.28-0.09,0.74,0.43,1.11,0.67
		C751.43,686.85,750.72,687.61,749.92,688.24z M786.28,716.54c-0.5,0.17-1.02,0.27-1.92,0.5c-0.23-0.48-0.76-1.09-0.67-1.58
		c0.1-0.51,0.73-1.09,1.25-1.28c0.38-0.14,1,0.24,1.46,0.5c0.58,0.32,1.1,0.76,1.65,1.14C787.46,716.06,786.88,716.33,786.28,716.54
		z M806.83,719.01c-0.86-0.67-1.69-1.45-2.33-2.34c-0.38-0.53-0.37-1.35-0.54-2.03c0.65-0.15,1.29-0.31,1.91-0.46
		c0.79,0.3,1.89,0.42,1.99,0.8c0.32,1.24,0.28,2.58,0.29,3.87C808.14,718.92,807.1,719.21,806.83,719.01z"/>
	<path d="M872.17,556.55c0.47,0.17,0.93,0.37,1.32,0.65c0.17,0.12,0.29,0.3,0.4,0.5l13.14,2.56l-4.4,22.61l-37.62-7.32l-6.11-9.07
		l-9.07,6.12l-5.25-1.02c0.35,1.24,0.76,2.44,2.14,3.09c0.22,0.1,0.11,0.95,0.15,1.45c-0.49,0.02-1.23,0.26-1.42,0.02
		c-0.91-1.1-1.81-2.27-2.38-3.56c-0.1-0.22,0.31-0.68,0.74-1.15l-31.77-6.19l4.4-22.61l15.18,2.96l2.96-15.19l-30.2-5.88l-1.48,7.59
		l5.84,8.67c0.09,0.04,0.18,0.1,0.18,0.14c0,0.05,0.01,0.1,0.02,0.16l0.07,0.1l-0.06,0.04c0.02,0.25,0.02,0.51-0.1,0.63
		c-0.77,0.83-1.61,1.59-2.42,2.37c-0.11-0.27-0.22-0.54-0.41-1.03l-6.08,4.1l-5.88,30.2l12.09,17.94l37.79,7.36l6.12,9.07l9.07-6.11
		l37.62,7.33l18.11-12.06l5.88-30.2l-6.12-9.07l9.07-6.11l1.48-7.59l-30.2-5.88L872.17,556.55z M790.08,568.32
		c-0.57-0.3-1.14-0.59-1.66-0.86c0.18-0.61,0.28-0.92,0.37-1.23c0.61,0.25,1.22,0.49,1.84,0.74
		C790.44,567.42,790.26,567.87,790.08,568.32z M798.62,595.83c-0.49-0.33-0.86-0.57-1.23-0.81c0.38-0.33,0.75-0.95,1.13-0.94
		c0.67,0.01,1.34,0.38,2,0.61C799.91,595.05,799.31,595.42,798.62,595.83z M847.27,601.1c-0.47,0.21-1.06,0.45-1.52,0.35
		c-0.6-0.14-1.13-0.6-1.69-0.92c0.51-0.31,1.01-0.63,1.54-0.91c0.08-0.04,0.19-0.02,0.19-0.01c0.72-0.01,1.1-0.08,1.39,0.03
		c0.29,0.11,0.66,0.44,0.68,0.7C847.87,600.58,847.54,600.97,847.27,601.1z M889.18,595.09c1.25,0.11,2.51,0.34,3.72,0.7
		c0.36,0.1,0.84,0.83,0.76,1.15c-0.1,0.4-0.68,0.9-1.1,0.94c-1.88,0.19-3.8-0.64-4.4-1.92
		C888.48,595.68,888.85,595.06,889.18,595.09z M888.34,589.28c0.2,0.35,0.08,0.88,0.11,1.32c-0.35-0.03-0.71,0-1.03-0.11
		c-0.69-0.24-1.35-0.56-1.46-0.6c0.25-1.22,0.24-1.51,0.33-1.54c0.29-0.11,0.69-0.26,0.89-0.14
		C887.62,588.47,888.09,588.84,888.34,589.28z"/>
	<path d="M262.78,265.78c-0.01,0.43-0.37,1.11-0.69,1.19c-0.4,0.1-0.91-0.3-1.6-0.58c0.95-1.1,1.34-1.56,1.72-2l-8.82-7.23
		l-1.08-10.89l-10.89,1.08l-0.29-0.24c-0.75,0.66-1.5,1.3-2.26,1.95c-0.12-0.14-0.24-0.29-0.54-0.66c0.65-0.65,1.32-1.3,1.99-1.96
		l-28.67-23.49l-21.53,2.14l-43.9,53.58l11.83,9.69l4.9-5.98l29.78,24.4l1.08,10.89l10.89-1.08l9.65,7.91
		c0.18-0.18,0.35-0.32,0.54-0.41c0.11-0.05,0.42,0.33,0.64,0.51c-0.15,0.17-0.29,0.34-0.43,0.51l19.25,15.78l-4.9,5.98l11.97,9.81
		l43.9-53.58l-2.27-21.64l-20.76-17.01C262.48,264.89,262.79,265.34,262.78,265.78z M151.35,277.75c-0.35-0.4-1.08-0.99-1-1.18
		c0.35-0.72,0.96-1.32,1.7-2.26c0.35,0.73,0.81,1.27,0.69,1.52C152.41,276.54,151.83,277.12,151.35,277.75z M246.14,260.55
		c0.42,0.06,0.76,0.61,1.14,0.94c-0.99,0.19-1.98,0.4-2.98,0.51c-0.1,0.01-0.26-0.55-0.58-1.28
		C244.63,260.65,245.4,260.45,246.14,260.55z M230.77,260.76c0.48,0.41,0.96,0.81,1.83,1.54c-0.93,0.4-1.55,0.83-1.71,0.7
		c-0.36-0.3-0.6-0.87-0.68-1.36C230.17,261.38,230.57,261.05,230.77,260.76z M222.23,245.98c0.78,1.13,1.69,1.91,1.56,2.41
		c-0.18,0.68-1.13,1.56-1.78,1.6c-0.62,0.03-1.29-0.92-1.94-1.44C220.68,247.82,221.29,247.09,222.23,245.98z M218.77,229.92
		c0.17,0.3,0.69,0.86,0.57,1.09c-0.57,1.14-1.23,2.27-2.04,3.25c-0.34,0.41-1.37,0.77-1.68,0.55c-0.5-0.36-0.94-1.21-0.92-1.84
		C214.76,231.08,216.43,229.84,218.77,229.92z M206.17,248.03c0.1-0.02,0.33,0.73,0.5,1.12c-0.61,0.21-1.22,0.44-1.85,0.57
		c-0.07,0.02-0.26-0.55-0.51-1.09C204.95,248.41,205.55,248.13,206.17,248.03z M193.97,231.48c0.2-0.51,1.6-0.53,2.07-0.67
		c1.14,0.27,1.85,0.43,2.56,0.6c0.64,0.15,1.28,0.32,1.91,0.48c-0.3,1.03-0.32,2.35-0.98,3.03c-0.7,0.71-1.97,0.95-3.04,1.14
		c-1.27,0.22-2.74,2.6-3.6,0.64C192.3,235.37,193.32,233.15,193.97,231.48z M165.29,279.17c-0.43-0.36-0.65-0.55-0.87-0.74
		c0.19-0.21,0.37-0.43,0.56-0.64c0.15,0.14,0.4,0.26,0.44,0.42C165.48,278.43,165.37,278.69,165.29,279.17z M168.16,262.03
		c-0.17-0.23-0.48-0.45-0.48-0.68c0-0.24,0.3-0.47,0.57-0.84c0.2,0.4,0.45,0.66,0.42,0.9C168.65,261.63,168.35,261.82,168.16,262.03
		z M169.82,254.09c-0.35,0.13-0.96-0.48-1.46-0.75c1.05-0.79,2.09-1.59,3.34-2.53c0.79,0.66,1.29,1.09,1.8,1.51
		C172.28,252.92,171.1,253.63,169.82,254.09z M175.02,288.37c-0.3-0.65-0.72-1.19-0.75-1.75c-0.02-0.31,0.79-0.99,0.95-0.91
		c0.59,0.27,1.06,0.8,1.58,1.23C176.42,287.24,176.05,287.55,175.02,288.37z M205.18,291.67c-0.68-1.06-1.11-1.56-1.31-2.14
		c-0.08-0.24,0.35-0.66,0.54-1c0.31,0.36,0.77,0.67,0.9,1.09C205.46,290.05,205.28,290.58,205.18,291.67z M217.12,294.68
		c-1.39-1.99-2.45-3.46-3.42-4.98c-0.08-0.13,0.48-0.68,0.74-1.03c1.12,1.44,2.26,2.86,3.33,4.34
		C217.88,293.16,217.54,293.64,217.12,294.68z M225.9,316.29c-0.11,0.53-1.22,0.83-1.44,0.97c-2.66-0.19-3.71-1.19-3.16-2.49
		c0.51-1.2,1.47-1.53,2.67-1.27C225.46,313.82,226.21,314.87,225.9,316.29z M231.58,330.81c-0.59,0.06-1.22-0.25-1.89-0.42
		c0.26-0.58,0.42-1.14,0.51-1.13c0.77,0.11,1.53,0.32,2.3,0.5C232.2,330.13,231.92,330.78,231.58,330.81z M229.23,321.76
		c0.6-0.53,1.14-1.02,1.72-1.47c0.03-0.02,0.53,0.49,0.51,0.51c-0.51,0.64-1.06,1.26-1.61,1.87
		C229.68,322.43,229.51,322.17,229.23,321.76z M241.18,342.54c-0.93,1.09-4.67,0.22-5.12-1.28c0.2-0.34,0.35-0.97,0.73-1.2
		c1.64-0.98,4.12-0.47,4.66,0.95C241.61,341.43,241.47,342.2,241.18,342.54z M249.75,345.59c-0.78,0.13-1.74-0.81-3.27-1.62
		c1.32-0.83,2.06-1.64,2.83-1.67c0.76-0.03,1.55,0.73,2.33,1.15C251.02,344.21,250.48,345.47,249.75,345.59z M260.94,310.6
		c-0.2,0.07-0.53-0.21-0.9-0.38c0.58-0.52,0.81-0.72,1.04-0.92c0.15,0.19,0.45,0.42,0.41,0.56
		C261.41,310.14,261.19,310.51,260.94,310.6z M253.84,317.08l-57.72-47.3c-0.35,0.36-0.85,0.7-1.16,1.02
		c-0.85-0.41-1.43-0.54-1.82-0.89c-1.08-1,0.3-0.99,0.62-1.41c0.1-0.13,0.2-0.26,0.3-0.39l-11.62-9.52l9.69-11.83l17.82,14.61
		c0.12-0.17,0.31-0.4,0.43-0.57c0.51,0.41,1.02,0.82,1.54,1.23c-0.13,0.16-0.26,0.33-0.46,0.58l10.84,8.89
		c0.42-0.28,0.79-0.55,0.99-0.46c0.4,0.19,0.81,0.79,0.84,1.25c0.01,0.19-0.07,0.38-0.18,0.57l39.56,32.41L253.84,317.08z"/>
	<path d="M346.48,134.06l7.41-2.21l11.01,36.89l-5.2,9.62l9.62,5.2l10.96,36.73l-7.41,2.21l4.42,14.83l51.55-15.38l5.2-9.62
		l9.62,5.2l7.41-2.21l-8.79-29.48l-14.83,4.42l4.37,14.66l-22.07,6.58l-10.95-36.73l14.66-4.37l2.16,7.24l14.83-4.42l-8.79-29.48
		l-14.83,4.42l2.21,7.41l-14.66,4.37l-11.01-36.89l22.07-6.58l4.42,14.83l14.83-4.42l-8.8-29.48l-7.41,2.21l-5.2,9.62l-0.45-0.24
		c-0.4,0.54-1.02,0.8-2.04,0.51c-0.34-0.1-0.73-0.01-1.09-0.01c0,0.01,0,0.01,0,0.02c-0.37,0-0.78,0.11-1.09-0.02
		c-0.48-0.21-0.89-0.58-1.33-0.88c0.3-0.37,0.53-0.87,0.91-1.08c0.33-0.18,0.67-0.34,1.02-0.5l-5.55-3l-51.55,15.38L346.48,134.06z
		 M419.36,219.46c0.94,0.13,1.71,2.67,0.8,3.26c-1.58,1.03-3.45,1.61-5.24,2.27c-0.15,0.05-0.6-0.75-0.8-1.02
		C414.1,221.39,416.88,219.13,419.36,219.46z M386.99,199.64c-0.24,0.06-0.51-0.01-1.66-0.09c0.91-0.46,1.16-0.68,1.44-0.7
		c0.2-0.01,0.41,0.24,0.62,0.37C387.26,199.36,387.15,199.6,386.99,199.64z M400.74,220.46c0.28-0.03,0.69,0.15,0.86,0.38
		c0.26,0.34-1.49,2.75-2.01,2.7c-0.47-0.05-0.92-0.38-1.33-0.56C398.3,221.15,399.36,220.61,400.74,220.46z M393.46,170.61
		c0.32-1.04,1.2-1.91,1.85-2.84c0.44,0.55,1.3,1.16,1.24,1.65c-0.13,1.07-0.73,2.09-1.4,3.79
		C394.26,171.9,393.31,171.08,393.46,170.61z M391.5,183.66c1.02,0.1,2.01,0.55,3.36,0.98c-0.65,0.7-0.94,1.27-1.35,1.39
		c-0.98,0.28-2.26,1.11-2.78-0.51C390.57,185.01,391.28,183.64,391.5,183.66z M390.13,200.24c0.13,0.14,0.26,0.28,0.39,0.42
		c-0.2,0.12-0.4,0.23-0.6,0.35c-0.09-0.16-0.26-0.34-0.23-0.48C389.7,200.41,389.96,200.34,390.13,200.24z M387.16,169.88
		c0.09-0.03,0.35,0.45,0.53,0.69c-0.88,0.55-1.75,1.09-2.63,1.64c-0.15-0.3-0.3-0.59-0.63-1.24
		C385.36,170.58,386.24,170.19,387.16,169.88z M383.84,162.89c0.19,0.08,0.25,0.46,0.37,0.71c-0.29,0.07-0.62,0.26-0.84,0.18
		c-0.22-0.08-0.34-0.45-0.59-0.83C383.25,162.91,383.59,162.78,383.84,162.89z M383.72,219.22c0.29,0.22,1.24,0.58,1.48,1.22
		c0.38,1.02-1.53,2.51-3.06,2.22c-0.63-0.12-1.4-1.06-1.57-1.76C380.28,219.65,381.27,219.08,383.72,219.22z M375.04,162.69
		c0.6,0.28,1.03,0.93,1.52,1.43c-0.35,0.33-0.79,1-1.04,0.93c-0.64-0.17-1.19-0.66-2.08-1.21
		C374.19,163.28,374.8,162.58,375.04,162.69z M359.27,116.01c0.68,0.93,1.42,1.83,1.99,2.82c0.13,0.23-0.33,0.81-0.78,1.78
		c-0.8-1.27-1.46-2.04-1.77-2.94C358.55,117.24,359.06,116.57,359.27,116.01z"/>
	<path d="M558.02,155.91l5.18,9.64l-11.05,36.7l10.18,19.22l36.87,11.1l19.27-10.35l11.05-36.7l9.47-5.23l-5.01-9.59l9.44-31.37
		c-1.05,0.74-2.2,1.18-3.57,0.58c-0.24-0.11-0.45-0.58-0.46-0.88c-0.01-0.31,0.21-0.85,0.41-0.9c0.84-0.19,1.71-0.24,2.06-0.28
		c0.98,0,1.52-0.05,2,0.03l1.22-4.05l7.24,2.18l4.41-14.65l-29.46-8.87l-4.41,14.65l7.41,2.23l-11.1,36.87l-9.64,5.18l0.45,0.84
		c0.19-0.17,0.37-0.31,0.56-0.31c2.82-0.06,4.25,1.74,3.32,4.22c-0.18,0.48-0.69,0.82-1.14,1.19l1.99,3.71l-11.05,36.7l-22.05-6.64
		l11.05-36.7l9.64-5.18l-5.18-9.64l11.1-36.87l7.41,2.23l4.41-14.65l-44.27-13.33l-4.41,14.65l7.41,2.23l-11.1,36.87L558.02,155.91z
		 M627.29,171.47c0.47,0.41,0.81,0.71,1.16,1.01c-0.42,0.4-0.79,0.9-1.29,1.14c-0.15,0.07-0.91-0.62-0.9-0.95
		C626.28,172.3,626.84,171.96,627.29,171.47z M578.14,123.13c0.04-0.16,0.19-0.29,0.29-0.43c0.19,0.19,0.56,0.4,0.54,0.56
		c-0.17,1.41,0.35,2.41,1.37,3.36c0.38,0.36,0.27,1.27,0.31,1.93c0,0.06-0.7,0.32-0.92,0.19c-0.6-0.34-1.36-0.73-1.59-1.3
		c-0.33-0.8-0.23-1.78-0.3-2.56C577.95,124.2,578.02,123.66,578.14,123.13z M569.58,160.54c0.16-0.04,0.36,0.04,0.35,0.04
		c0.89,0.08,1.61,0.08,2.3,0.25c0.2,0.05,0.45,0.61,0.39,0.87c-0.06,0.26-0.47,0.65-0.71,0.64c-0.89-0.03-1.8-0.12-2.66-0.37
		c-0.42-0.12-0.73-0.64-1.09-0.98C568.63,160.83,569.1,160.66,569.58,160.54z"/>
	<path d="M724.39,275.43l-23.78,19.52l4.91,5.98l10.77,0.94l-1.07,10.89l19.52,23.78l21.77,2.14l8.83-7.25l10.78,0.94l1.18-10.75
		l8.83-7.25l2.14-21.77l-14.61-17.8l29.76-24.43l14.61,17.8l-11.96,9.81l9.81,11.96l23.78-19.52l-4.91-5.98l-10.89-1.07l1.07-10.89
		l-19.52-23.78l-21.53-2.12l-8.97,7.36l-10.89-1.07l-1.07,10.89l-8.83,7.25l-0.34,3.28c2.33,0.36,4.68,0.64,6.98,1.16
		c1.29,0.3,1.41,1.69,0.33,2.56c-0.42,0.34-1.03,0.43-1.47,0.76c-3.42,2.58-5.12,2.07-6.06-1.91c-0.02-0.07-0.02-0.13-0.03-0.2
		l-1.67,15.99l14.72,17.94L737,314.89l-14.72-17.94l11.82-9.7L724.39,275.43z M819.7,278.5c0.45,0,1.67-0.07,2.88,0.05
		c0.32,0.03,0.85,0.7,0.82,1.03c-0.13,1.45-0.06,3.13-0.78,4.26c-0.51,0.81-2.15,0.87-3.28,1.3c-1.49,0.56-1.84,0.16-1.66-1.49
		c0.13-1.2-0.44-2.48-0.61-3.73C816.88,278.46,817.44,277.78,819.7,278.5z M769.36,244.72c0.26-0.09,0.65,0.16,0.94,0.31
		c0.06,0.03,0.02,0.49-0.04,0.51c-1,0.3-2,0.57-3.02,0.81c-0.04,0.01-0.15-0.27-0.32-0.59C767.74,245.4,768.53,245,769.36,244.72z
		 M730.02,306.85c0.42,0.08,0.94,0.57,1.06,0.99c0.08,0.25-0.52,0.71-1.06,1.37c-0.54-0.76-0.91-1.27-1.28-1.79
		C729.17,307.21,729.65,306.78,730.02,306.85z"/>
</g>
</svg>
